<svg width="299" height="626" xmlns="http://www.w3.org/2000/svg"><defs/><g fill="none" fill-rule="evenodd"><path d="M40 0h219c22.09 0 40 17.91 40 40v546c0 22.09-17.91 40-40 40H40c-22.09 0-40-17.91-40-40V40C0 17.91 17.91 0 40 0zm3.8785714 10C25.1676357 10 10 25.222 10 44v538c0 18.778 15.1676357 34 33.8785714 34H255.121429C273.832364 616 289 600.778 289 582V44c0-18.778-15.167636-34-33.878571-34H43.8785714z" fill="#FFF" fill-rule="nonzero"/><path d="M43.8799283 10.5C25.4442437 10.5 10.5 25.498 10.5 44v538c0 18.502 14.9442437 33.5 33.3799283 33.5H255.120072C273.555756 615.5 288.5 600.502 288.5 582V44c0-18.502-14.944244-33.5-33.379928-33.5H43.8799283z" stroke="#EAEAEA"/></g></svg>